<svg width="48" height="48" viewBox="0 0 48 48" fill="none" xmlns="http://www.w3.org/2000/svg">
  <defs>
    <linearGradient id="purpleGrad4" x1="0%" y1="0%" x2="100%" y2="100%">
      <stop offset="0%" style="stop-color:#8B5CF6;stop-opacity:1" />
      <stop offset="100%" style="stop-color:#6D28D9;stop-opacity:1" />
    </linearGradient>
  </defs>
  <path d="M24 6 C20 6 16 10 16 14 L16 24 L12 28 L12 32 L36 32 L36 28 L32 24 L32 14 C32 10 28 6 24 6 Z" fill="url(#purpleGrad4)"/>
  <path d="M20 32 C20 35 22 38 24 38 C26 38 28 35 28 32" stroke="#A78BFA" stroke-width="2" stroke-linecap="round"/>
  <circle cx="34" cy="12" r="6" fill="#EF4444"/>
  <circle cx="34" cy="12" r="4" fill="#FCA5A5"/>
  <path d="M28 4 L30 8 M38 4 L36 8 M40 10 L36 12" stroke="#FCD34D" stroke-width="2" stroke-linecap="round"/>
</svg>
